<svg width="20" height="21" viewBox="0 0 20 21" fill="none" xmlns="http://www.w3.org/2000/svg">
<path d="M17.7778 20.9871V16.3682C19.1667 14.7459 20 12.6804 20 10.4315C20 5.21595 15.5222 0.987061 10 0.987061C4.47778 0.987061 0 5.21595 0 10.4315C0 15.6471 4.47778 19.8759 10 19.8759C11.8466 19.8819 13.6615 19.3955 15.2578 18.4671L17.7778 20.9871ZM10 17.6537C5.70444 17.6537 2.22222 14.4204 2.22222 10.4315C2.22222 6.44262 5.70444 3.20928 10 3.20928C14.2956 3.20928 17.7778 6.44262 17.7778 10.4315C17.7778 14.4204 14.2956 17.6537 10 17.6537Z" fill="black"/>
</svg>
