<svg width="23" height="20" viewBox="0 0 23 20" fill="none" xmlns="http://www.w3.org/2000/svg">
<path d="M21.5026 4.70964C21.1612 3.96192 20.669 3.28434 20.0535 2.71484C19.4376 2.14363 18.7114 1.68971 17.9144 1.37774C17.088 1.05297 16.2016 0.886728 15.3067 0.888676C14.0512 0.888676 12.8263 1.21392 11.7619 1.82826C11.5072 1.97522 11.2653 2.13663 11.0361 2.3125C10.8069 2.13663 10.565 1.97522 10.3103 1.82826C9.24582 1.21392 8.02091 0.888676 6.76545 0.888676C5.86141 0.888676 4.98538 1.0525 4.15774 1.37774C3.35811 1.69093 2.63743 2.14145 2.01861 2.71484C1.40232 3.2837 0.91002 3.96143 0.569597 4.70964C0.215622 5.4878 0.034814 6.31415 0.034814 7.16459C0.034814 7.96685 0.207982 8.80284 0.551771 9.65328C0.839536 10.364 1.25208 11.1012 1.77923 11.8456C2.61451 13.0237 3.76302 14.2524 5.18911 15.498C7.55234 17.5626 9.89266 18.9889 9.99197 19.0467L10.5955 19.4129C10.8629 19.5743 11.2067 19.5743 11.4741 19.4129L12.0776 19.0467C12.1769 18.9864 14.5147 17.5626 16.8805 15.498C18.3066 14.2524 19.4551 13.0237 20.2904 11.8456C20.8175 11.1012 21.2326 10.364 21.5178 9.65328C21.8616 8.80284 22.0348 7.96685 22.0348 7.16459C22.0373 6.31415 21.8565 5.4878 21.5026 4.70964ZM11.0361 17.5072C11.0361 17.5072 15.5348 14.2359 15.5348 9.38866C15.5348 6.9337 6.85155 8 9.5 8C11.3616 8 10.7403 10.9528 11.5348 12.3887C12.3293 10.9528 11.6384 9.3336 13.5 9.3336C16.1485 9.3336 13.83 6.87864 13.83 9.3336C13.83 14.1809 11.0361 17.5072 11.0361 17.5072Z" fill="#FF0000"/>
</svg>
