<svg width="21" height="23" viewBox="0 0 21 23" fill="none" xmlns="http://www.w3.org/2000/svg">
<path d="M11 14C10.2089 14 9.43552 13.7654 8.77772 13.3259C8.11992 12.8864 7.60723 12.2616 7.30448 11.5307C7.00173 10.7998 6.92252 9.99556 7.07686 9.21964C7.2312 8.44372 7.61216 7.73098 8.17157 7.17157C8.73098 6.61216 9.44372 6.2312 10.2196 6.07686C10.9956 5.92252 11.7998 6.00173 12.5307 6.30448C13.2616 6.60723 13.8864 7.11992 14.3259 7.77772C14.7654 8.43552 15 9.20888 15 10C15 11.0609 14.5786 12.0783 13.8284 12.8284C13.0783 13.5786 12.0609 14 11 14ZM11 7.6C10.5253 7.6 10.0613 7.74076 9.66663 8.00447C9.27195 8.26819 8.96434 8.64302 8.78269 9.08156C8.60104 9.5201 8.55351 10.0027 8.64612 10.4682C8.73872 10.9338 8.9673 11.3614 9.30295 11.6971C9.63859 12.0327 10.0662 12.2613 10.5318 12.3539C10.9973 12.4465 11.4799 12.399 11.9184 12.2173C12.357 12.0357 12.7318 11.728 12.9955 11.3334C13.2592 10.9387 13.4 10.4747 13.4 10C13.4 9.36348 13.1471 8.75303 12.6971 8.30295C12.247 7.85286 11.6365 7.6 11 7.6Z" fill="#C2C2C2"/>
<path d="M17.2742 21C17.0825 20.9967 16.8993 20.8951 16.7637 20.7168C16.6282 20.5385 16.5509 20.2976 16.5484 20.0455C16.5484 17.5636 15.5226 15.9091 10.5 15.9091C5.47742 15.9091 4.45161 17.5636 4.45161 20.0455C4.45161 20.2986 4.37514 20.5414 4.23903 20.7204C4.10291 20.8994 3.9183 21 3.72581 21C3.53331 21 3.3487 20.8994 3.21258 20.7204C3.07647 20.5414 3 20.2986 3 20.0455C3 14 8.25484 14 10.5 14C12.7452 14 18 14 18 20.0455C17.9975 20.2976 17.9202 20.5385 17.7846 20.7168C17.6491 20.8951 17.4659 20.9967 17.2742 21Z" fill="#C2C2C2"/>
<path d="M0.75 4.86364C0.75 4.17328 1.30964 3.61364 2 3.61364H7.71048C8.5476 3.61364 9.33913 3.23234 9.86091 2.57774L9.97906 2.42953C10.4795 1.80171 11.4336 1.80171 11.934 2.42953L12.5205 1.96204L11.934 2.42953L12.0521 2.57774C12.5739 3.23234 13.3654 3.61364 14.2026 3.61364H19C19.6904 3.61364 20.25 4.17328 20.25 4.86364V20.5C20.25 21.1904 19.6904 21.75 19 21.75H2C1.30964 21.75 0.75 21.1904 0.75 20.5V4.86364Z" stroke="#C2C2C2" stroke-width="1.5"/>
</svg>
