<svg width="22" height="22" viewBox="0 0 22 22" fill="none" xmlns="http://www.w3.org/2000/svg">
<path d="M11 0C5.0369 0 0 5.0369 0 11C0 16.9631 5.0369 22 11 22C16.9631 22 22 16.9631 22 11C22 5.0369 16.9631 0 11 0ZM11 5.5C12.8997 5.5 14.3 6.8992 14.3 8.8C14.3 10.7008 12.8997 12.1 11 12.1C9.1014 12.1 7.7 10.7008 7.7 8.8C7.7 6.8992 9.1014 5.5 11 5.5ZM5.3834 16.2492C6.3701 14.7972 8.0157 13.8292 9.9 13.8292H12.1C13.9854 13.8292 15.6299 14.7972 16.6166 16.2492C15.2108 17.754 13.2165 18.7 11 18.7C8.7835 18.7 6.7892 17.754 5.3834 16.2492Z" fill="black"/>
</svg>
